<?xml version="1.0" encoding="UTF-8"?>
<svg id="Ebene_1" data-name="Ebene 1" xmlns="http://www.w3.org/2000/svg" viewBox="0 0 710.39 159.49">
  <defs>
    <style>
      .cls-1, .cls-2 {
        fill: #404040;
      }

      .cls-2 {
        fill-rule: evenodd;
      }

      .cls-3 {
        fill: #e8551e;
      }
    </style>
  </defs>
  <path class="cls-3" d="M271.88,40.51c18-13.68,37.77-24.16,58.59-31.08-14.16-5.83-30.31-9.02-48.06-9.02s-35.12,2.67-52.21,8.37c17.28,6.81,30.86,18.09,41.66,31.73h0Z"/>
  <path class="cls-3" d="M98.74,145.06C115.51,82.47,169.38,29.16,230.37,8.81c-13.77-5.42-29.37-8.81-46.45-8.81C103.81,0,21.47,64.94,0,145.06h98.74Z"/>
  <path class="cls-3" d="M199.02,145.41c11.06-41.29,38.2-78.53,72.94-104.95,20.94,26.45,29.2,63.36,18.05,104.95h-91,.01Z"/>
  <polygon class="cls-1" points="361.55 78.94 361.55 21.24 361.76 21.24 383.3 78.94 405.04 78.94 405.04 .03 389.63 .03 389.63 54.69 389.41 54.69 368.43 .03 346.13 .03 346.13 78.94 361.55 78.94 361.55 78.94"/>
  <path class="cls-1" d="M463.39.03v54.87c0,8.74-3.28,13.55-10.49,13.55-6.01,0-10.17-3.83-10.17-13.55V.03h-16.51v55.95c0,14.87,8.75,24.27,26.89,24.27,20.11,0,26.78-12.46,26.78-24.27V.03h-16.51.01Z"/>
  <polygon class="cls-1" points="516.68 33.81 516.47 33.81 516.47 .03 499.96 .03 499.96 78.94 516.47 78.94 516.47 38.51 516.68 38.51 535.59 78.94 554.18 78.94 532.1 35.45 554.18 .03 536.03 .03 516.68 33.81 516.68 33.81"/>
  <polygon class="cls-1" points="613.29 78.94 613.29 66.81 585.87 66.81 585.87 43.76 610.34 43.76 610.34 31.62 585.87 31.62 585.87 12.17 612.42 12.17 612.42 .03 569.36 .03 569.36 78.94 613.29 78.94 613.29 78.94"/>
  <polygon class="cls-1" points="647.4 78.94 647.4 18.07 647.62 18.07 662.05 78.94 677.79 78.94 692.98 18.07 693.2 18.07 693.2 78.94 709.27 78.94 709.27 .03 683.58 .03 670.47 53.7 670.25 53.7 657.9 .03 631.33 .03 631.33 78.94 647.4 78.94 647.4 78.94"/>
  <polygon class="cls-1" points="351.06 147.7 356.96 147.7 364.94 110.15 379.23 110.15 380.31 105.07 345.83 105.07 344.75 110.15 359.04 110.15 351.06 147.7 351.06 147.7"/>
  <path class="cls-2" d="M399.05,133.94l.59-2.77c1.74-8.21-1.26-13.82-10.07-13.99-9.39,0-15.3,7.26-17.14,15.94-1.86,8.74.49,15.47,9.99,15.47,7.08,0,12.99-3.37,15.31-10.1h-5.9c-1.57,4.31-4.12,6.02-8.48,6.02-5.73,0-6.71-5.37-5.19-10.57h20.9,0ZM378.99,130.05c1.03-4.84,4.64-8.8,9.31-8.8,5.43,0,6.86,3.84,5.69,8.8h-15Z"/>
  <path class="cls-1" d="M431.21,127.57c1.07-6.43-2.81-10.39-9.07-10.39-9.39,0-15.3,7.26-17.14,15.94-1.86,8.74.49,15.47,9.99,15.47,6.55,0,12.38-4.07,14.27-10.75h-5.61c-1.2,4.25-4.02,6.67-7.73,6.67-5.37,0-6.45-4.66-4.97-11.63s4.54-11.63,9.91-11.63c4.02,0,5.23,2.6,4.74,6.32h5.61Z"/>
  <path class="cls-1" d="M440.52,147.7l3.24-15.23c.35-1.65.45-3.78,2.4-6.85,1.59-2.48,5.38-4.19,7.61-4.13,5.23.12,5.87,3.48,4.77,8.68l-3.73,17.53h5.61l4.27-20.07c1.13-5.31-.2-10.45-7.93-10.45-4.31,0-7.82,1.54-10.65,4.84h-.12l3.6-16.94h-5.61l-9.06,42.62h5.61,0Z"/>
  <path class="cls-1" d="M483.22,118.06h-5.49l-6.3,29.64h5.61l3.43-16.12c1.23-5.79,3.04-7.08,4.04-7.91,2.87-2.36,5.9-2.18,5.9-2.18,4.72,0,6.22,2.66,5.18,7.56l-3.96,18.66h5.61l4.35-20.49c2.02-9.5-7.02-10.04-9.08-10.04-2.95,0-7.41,1.54-10.09,5.25h-.12l.93-4.37h-.01Z"/>
  <path class="cls-2" d="M527.17,117.18c-9.74,0-16.14,6.49-18.1,15.7-1.96,9.21,1.68,15.71,11.42,15.71s16.14-6.49,18.1-15.71c1.96-9.21-1.68-15.7-11.42-15.7h0ZM514.98,132.88c1.34-6.32,4.66-11.63,11.33-11.63s7.72,5.31,6.38,11.63c-1.34,6.32-4.66,11.63-11.33,11.63s-7.72-5.31-6.38-11.63h0Z"/>
  <polygon class="cls-1" points="550.18 147.7 559.24 105.07 553.63 105.07 544.57 147.7 550.18 147.7 550.18 147.7"/>
  <path class="cls-2" d="M580.56,117.18c-9.74,0-16.14,6.49-18.1,15.7-1.96,9.21,1.68,15.71,11.42,15.71s16.14-6.49,18.1-15.71c1.96-9.21-1.68-15.7-11.42-15.7h0ZM568.37,132.88c1.34-6.32,4.66-11.63,11.33-11.63s7.72,5.31,6.38,11.63c-1.34,6.32-4.66,11.63-11.33,11.63s-7.73-5.31-6.38-11.63h0Z"/>
  <path class="cls-2" d="M604.74,132.17c.99-4.66,4.09-10.92,10.64-10.92,6.08,0,7.22,5.19,6,10.92s-4.56,10.92-10.64,10.92c-6.55,0-6.99-6.26-6-10.92h0ZM623.44,122.49c-.09.41-.49-1.3-.58-1.42-1.25-2.71-4.19-3.9-7.08-3.9-8.97,0-15.19,6.73-17.01,15.29-1.77,8.32.48,14.7,9.51,14.7,3.66,0,8.29-1.48,10.81-5.02h.18c-1.6,6.67-3,13.28-10.97,13.28-3.96,0-6.34-1.54-5.74-5.49h-5.9c-1.4,6.85,2.57,9.56,8.95,9.56,10.86,0,16.53-4.43,18.84-15.29l4.43-20.84c.38-1.77.93-3.54,1.48-5.31h-5.79l-1.12,4.43h-.01Z"/>
  <path class="cls-2" d="M640.08,147.7l6.3-29.64h-5.61l-6.3,29.64h5.61ZM641.71,111.16h6.67l1.29-6.08h-6.67l-1.29,6.08h0Z"/>
  <path class="cls-2" d="M678.64,133.94l.59-2.77c1.74-8.21-1.25-13.82-10.07-13.99-9.39,0-15.3,7.26-17.14,15.94-1.86,8.74.49,15.47,10,15.47,7.08,0,12.99-3.37,15.31-10.1h-5.9c-1.57,4.31-4.12,6.02-8.48,6.02-5.73,0-6.71-5.37-5.19-10.57h20.9-.02ZM658.57,130.05c1.03-4.84,4.64-8.8,9.31-8.8,5.43,0,6.86,3.84,5.69,8.8h-15Z"/>
  <path class="cls-1" d="M686.91,126.15c-2.46,11.57,16.6,6.61,15.2,13.22-.82,3.84-4.46,5.14-7.76,5.14s-5.49-1.95-4.83-5.61h-5.9c-1.52,6.85,3.08,9.68,9.28,9.68s13.64-2.24,15.19-9.5c1.42-6.67-4.24-7.26-8.91-8.91-1.99-.65-7.01-.88-6.31-4.19s3.42-4.72,6.44-4.72c3.25,0,5.87,1.24,4.84,5.02h5.9c1.84-6.73-3.97-9.09-9.58-9.09s-12.22,2.78-13.54,8.97h-.02Z"/>
</svg>